<svg width="270" height="85" viewBox="0 0 270 85" fill="none" xmlns="http://www.w3.org/2000/svg">
<path d="M1.67883 34.927H3.71383L17.0708 7.621L30.4278 34.927H32.2038V39.589H31.0568V36H2.75183V39.589H1.67883V34.927ZM29.1698 34.927L16.9598 10.174L4.86083 34.927H29.1698ZM50.7749 36.74C48.1849 36.74 45.7799 36.0617 43.5599 34.705C41.3399 33.3483 39.5763 31.5477 38.2689 29.303C36.9863 27.0337 36.3449 24.604 36.3449 22.014C36.3449 19.4487 36.9986 17.056 38.3059 14.836C39.6133 12.5913 41.3769 10.8153 43.5969 9.508C45.8169 8.176 48.2219 7.51 50.8119 7.51C53.4266 7.51 55.8316 8.16367 58.0269 9.471C60.2223 10.7783 61.9613 12.5543 63.2439 14.799C64.5513 17.019 65.2049 19.424 65.2049 22.014C65.2049 24.678 64.5513 27.1447 63.2439 29.414C61.9613 31.6587 60.2099 33.447 57.9899 34.779C55.7946 36.0863 53.3896 36.74 50.7749 36.74ZM50.7749 35.667C53.1429 35.667 55.3383 35.0627 57.3609 33.854C59.3836 32.6207 60.9869 30.968 62.1709 28.896C63.3796 26.7993 63.9839 24.53 63.9839 22.088C63.9839 19.6707 63.3919 17.426 62.2079 15.354C61.0239 13.282 59.4206 11.6417 57.3979 10.433C55.3753 9.19966 53.1799 8.583 50.8119 8.583C48.4193 8.583 46.2116 9.19966 44.1889 10.433C42.1663 11.6417 40.5506 13.282 39.3419 15.354C38.1579 17.426 37.5659 19.6707 37.5659 22.088C37.5659 24.53 38.1579 26.7993 39.3419 28.896C40.5506 30.968 42.1663 32.6207 44.1889 33.854C46.2116 35.0627 48.4069 35.667 50.7749 35.667ZM103.492 8.25V36H102.271V10.026L89.1731 36.518L76.1491 9.693V36H74.9281V8.25H76.6671L89.1731 34.002L101.79 8.25H103.492Z" fill="#262F56"/>
<path d="M162.51 7.25H163.731V33.927H175.312V7.25H176.496V33.927H188.077V7.25H189.298V35H162.51V7.25ZM199.948 7.25H201.169V23.345H220.187V7.25H221.408V35H220.187V24.418H201.169V35H199.948V7.25ZM232.259 7.25H233.48V35H232.259V7.25ZM244.179 7.25H245.4V33.113L264.677 7.25H265.898V35H264.677V9.063L245.326 35H244.179V7.25ZM255.168 4.771C253.516 4.771 252.221 4.401 251.283 3.661C250.371 2.921 249.877 1.86033 249.803 0.478999H250.839C250.938 1.56433 251.357 2.39066 252.097 2.958C252.837 3.52533 253.849 3.809 255.131 3.809C256.241 3.809 257.203 3.48833 258.017 2.847C258.856 2.20567 259.325 1.41633 259.423 0.478999H260.496C260.447 1.68766 259.904 2.71133 258.868 3.55C257.832 4.364 256.599 4.771 255.168 4.771Z" fill="#262F56"/>
<path d="M101.412 48.25H102.532V52.1C103.162 50.84 104.142 49.825 105.472 49.055C106.802 48.2617 108.202 47.865 109.672 47.865C111.189 47.865 112.577 48.2383 113.837 48.985C115.12 49.7317 116.135 50.735 116.882 51.995C117.629 53.255 118.002 54.6317 118.002 56.125C118.002 57.6183 117.629 58.995 116.882 60.255C116.135 61.515 115.12 62.5183 113.837 63.265C112.577 64.0117 111.189 64.385 109.672 64.385C108.249 64.385 106.872 64 105.542 63.23C104.235 62.46 103.232 61.445 102.532 60.185V71H101.412V48.25ZM109.742 63.405C111.025 63.405 112.215 63.0783 113.312 62.425C114.409 61.7483 115.272 60.8617 115.902 59.765C116.555 58.645 116.882 57.4317 116.882 56.125C116.882 54.8417 116.555 53.64 115.902 52.52C115.249 51.4 114.374 50.5133 113.277 49.86C112.18 49.1833 110.99 48.845 109.707 48.845C108.424 48.845 107.222 49.1833 106.102 49.86C105.005 50.5367 104.119 51.435 103.442 52.555C102.789 53.675 102.462 54.8767 102.462 56.16C102.462 57.4433 102.789 58.645 103.442 59.765C104.119 60.8617 105.017 61.7483 106.137 62.425C107.257 63.0783 108.459 63.405 109.742 63.405ZM133.48 64.385C131.986 64.385 130.598 64.0117 129.315 63.265C128.031 62.5183 127.016 61.515 126.27 60.255C125.523 58.9717 125.15 57.595 125.15 56.125C125.15 54.655 125.523 53.29 126.27 52.03C127.016 50.7467 128.031 49.7317 129.315 48.985C130.598 48.2383 131.986 47.865 133.48 47.865C134.996 47.865 136.431 48.2733 137.785 49.09C139.138 49.8833 140.083 50.9217 140.62 52.205V48.25H141.74V64H140.62V60.08C139.99 61.3867 139.01 62.4367 137.68 63.23C136.373 64 134.973 64.385 133.48 64.385ZM133.55 63.405C134.833 63.405 136.023 63.0783 137.12 62.425C138.216 61.7483 139.08 60.8617 139.71 59.765C140.363 58.645 140.69 57.4317 140.69 56.125C140.69 54.8417 140.363 53.64 139.71 52.52C139.056 51.4 138.181 50.5133 137.085 49.86C135.988 49.1833 134.798 48.845 133.515 48.845C132.231 48.845 131.03 49.1833 129.91 49.86C128.813 50.5367 127.926 51.435 127.25 52.555C126.596 53.675 126.27 54.8767 126.27 56.16C126.27 57.4433 126.596 58.645 127.25 59.765C127.926 60.8617 128.825 61.7483 129.945 62.425C131.065 63.0783 132.266 63.405 133.55 63.405ZM151.127 48.25H152.212V62.425L163.517 48.25H164.532V64H163.447V49.86L152.107 64H151.127V48.25ZM157.847 43.735C156.284 43.735 155.059 43.35 154.172 42.58C153.286 41.81 152.819 40.8417 152.772 39.675H153.752C153.822 40.5617 154.219 41.2967 154.942 41.88C155.689 42.4633 156.646 42.755 157.812 42.755C158.956 42.755 159.889 42.4633 160.612 41.88C161.359 41.2967 161.791 40.5617 161.907 39.675H162.887C162.841 40.8183 162.362 41.7867 161.452 42.58C160.542 43.35 159.341 43.735 157.847 43.735Z" fill="#262F56"/>
<path d="M132.857 0L154.114 38.5286L132.857 7.70571L111.6 38.5286L132.857 0Z" fill="#262F56"/>
<path d="M142.157 12.6213H146.143V25.2428L142.157 20.5928V12.6213Z" fill="#262F56"/>
<path d="M132.857 10.6287L148.965 34.5429L132.857 11.9572L116.749 34.5429L132.857 10.6287Z" fill="#262F56"/>
</svg>

